<?xml version="1.0" standalone="no"?>
<!DOCTYPE svg PUBLIC "-//W3C//DTD SVG 20010904//EN"
 "http://www.w3.org/TR/2001/REC-SVG-20010904/DTD/svg10.dtd">
<svg version="1.0" xmlns="http://www.w3.org/2000/svg"
 width="700.000000pt" height="700.000000pt" viewBox="0 0 700.000000 700.000000"
 preserveAspectRatio="xMidYMid meet">
<metadata>
Created by potrace 1.11, written by Peter Selinger 2001-2013
</metadata>
<g transform="translate(0.000000,700.000000) scale(0.100000,-0.100000)"
fill="#000000" stroke="none">
<path d="M3270 6989 c-604 -38 -1209 -243 -1713 -581 -1184 -794 -1766 -2213
-1482 -3613 181 -893 718 -1690 1482 -2203 763 -511 1719 -702 2619 -523 258
52 402 92 593 168 1088 428 1892 1362 2146 2492 64 285 90 557 82 861 -7 226
-19 342 -61 563 -282 1476 -1472 2606 -2961 2812 -229 31 -464 39 -705 24z
m2170 -1544 l0 -55 -368 0 -367 0 -163 -325 c-89 -179 -162 -327 -162 -330 0
-3 126 -5 281 -5 l281 0 -7 -92 c-28 -376 -178 -697 -446 -953 -213 -203 -470
-330 -766 -378 l-133 -22 0 -812 0 -813 159 0 c182 0 213 -7 235 -55 20 -41
13 -75 -21 -107 l-25 -23 -432 0 c-474 0 -475 0 -496 58 -7 22 -7 40 1 65 18
53 51 62 239 62 l160 0 0 814 0 814 -87 12 c-436 59 -806 295 -1045 666 -115
179 -196 432 -214 672 l-7 92 1094 0 1094 0 193 385 192 385 405 0 405 0 0
-55z"/>
</g>
</svg>
